<svg xmlns="http://www.w3.org/2000/svg" xmlns:xlink="http://www.w3.org/1999/xlink" width="500" zoomAndPan="magnify" viewBox="0 0 375 75" height="100" preserveAspectRatio="xMidYMid meet" xmlns:v="https://vecta.io/nano"><path d="M45.94 42.112h7.668V28.237c0-4.187 2.32-6.758 5.852-6.758 3.277 0 5.246 2.32 5.246 6.203v14.43h7.668V26.878c0-7.316-4.187-11.957-11.098-11.957-3.531 0-6.711 1.211-8.828 3.684l-.809-2.977H45.94zm46.105.707c8.777 0 14.832-5.703 14.832-13.977 0-8.223-6.055-13.922-14.832-13.922-8.832 0-14.883 5.699-14.883 13.922 0 8.273 6.051 13.977 14.883 13.977zm-7.316-13.977c0-4.336 3.027-7.363 7.316-7.363s7.262 3.027 7.262 7.363-2.977 7.367-7.262 7.367-7.316-3.027-7.316-7.367zm40.202 13.27h4.844v-6.66h-3.18c-3.027 0-4.437-1.461-4.437-4.539v-9.031h7.262v-6.254h-7.262V8.764h-5.953l-.457 3.43c-.402 2.727-1.16 3.434-4.035 3.434h-2.371v6.254h5.148v10.191c0 6.457 3.73 10.039 10.441 10.039zm22.797.707c6.508 0 11.656-3.332 13.977-8.93h-7.77c-1.262 1.766-3.531 2.773-6.055 2.773-3.48 0-6.203-1.965-6.91-5.598h21.238c.453-9.687-5.297-16.145-14.379-16.145-8.574 0-14.477 5.699-14.477 13.922 0 8.273 5.852 13.977 14.375 13.977zm-6.707-16.598c.855-3.23 3.48-5.195 6.859-5.195 3.531 0 6.055 1.965 6.914 5.195zm25.63 15.959h5.145l4.488-5.953 3.23-4.387 3.176 4.387 4.441 5.953h5.145l-10.039-13.316L191.772 16h-5.047l-4.086 5.551-3.176 4.336-3.129-4.336L172.249 16h-5.094l9.535 12.863zm45.844.656c7.719 0 13.316-5.801 13.316-13.77 0-7.922-5.598-13.723-13.316-13.723-4.285 0-7.918 1.766-10.289 4.691L201.702 16h-3.48v36.27h4.238V38.446c2.371 2.727 5.898 4.391 10.035 4.391zm-10.187-13.77c0-5.652 3.984-9.687 9.633-9.687 5.699 0 9.637 4.035 9.637 9.688 0 5.699-3.937 9.684-9.637 9.684-5.648 0-9.633-3.984-9.633-9.684zm30.306 13.114h4.238V30.024c0-7.465 3.73-10.09 8.473-10.09h2.574V16h-2.371c-4.441 0-7.062 1.414-8.93 4.539L236.095 16h-3.48zm32.831.656c5.902 0 10.746-3.18 12.863-8.273h-4.793c-1.613 2.773-4.59 4.289-8.02 4.289-4.992 0-8.523-3.129-9.18-8.07h22.648c.301-9.133-5.094-15.437-13.469-15.437-7.918 0-13.469 5.652-13.469 13.723 0 8.121 5.5 13.77 13.418 13.77zm-9.078-15.789c.758-4.641 4.289-7.719 9.129-7.719 4.793 0 8.324 2.926 9.23 7.719zm0 0"/><use xlink:href="#B"/><use xlink:href="#B" x="27.031"/><path d="M91.733 67.805h.914V65.41h1.551c1.645 0 2.707-.945 2.707-2.445 0-1.488-1.062-2.445-2.707-2.445h-2.465zm.914-3.246v-3.168h1.531c1.176 0 1.789.543 1.789 1.582s-.613 1.586-1.789 1.586zm14.066 3.246h.914v-2.613h1.605l1.777 2.613h1.105l-1.832-2.707c1.063-.262 1.719-1.062 1.719-2.238 0-1.445-1-2.34-2.512-2.34h-2.777zm.914-3.488v-2.926h1.762c1.063 0 1.676.543 1.676 1.469s-.613 1.457-1.676 1.457zm14.503 3.488h.914V60.52h-.914zm0 0"/><use xlink:href="#C"/><use xlink:href="#D"/><path d="M174.075 67.805h2.52c2.238 0 3.734-1.488 3.734-3.645s-1.496-3.641-3.734-3.641h-2.52zm.914-.875v-5.539h1.563c1.695 0 2.844 1.117 2.844 2.77s-1.137 2.77-2.801 2.77zm0 0"/><use xlink:href="#D" x="41.764"/><path d="M215.84 67.805h.906v-5.703l4.027 5.703h.855V60.52h-.898v5.703l-4.027-5.703h-.863zm19.547.137c2.219 0 3.781-1.562 3.781-3.781s-1.562-3.777-3.781-3.777-3.766 1.563-3.766 3.777 1.551 3.781 3.766 3.781zm-2.832-3.781c0-1.695 1.156-2.863 2.832-2.863s2.832 1.168 2.832 2.863-1.156 2.863-2.832 2.863-2.832-1.164-2.832-2.863zm18.353 3.644h.918v-6.414h2.457v-.871h-5.84v.871h2.465zm0 0"/><use xlink:href="#D" x="115.476"/><use xlink:href="#C" x="145.144"/><defs ><path id="B" d="M295.151 42.836c6.453 0 10.641-2.977 10.641-7.516 0-4.086-3.43-6.859-10.035-8.172-5.449-1.059-7.316-2.117-7.316-4.34 0-2.32 2.219-3.73 6.004-3.73 3.984 0 6.355 1.563 6.656 4.438h4.188c-.352-5.145-4.437-8.172-10.895-8.172-6.305 0-10.141 2.777-10.141 7.465 0 4.137 3.18 6.66 9.937 7.77 5.094.859 7.414 2.27 7.414 4.641s-2.418 3.832-6.406 3.832c-4.488 0-7.16-1.914-7.313-5.094h-4.187c.102 5.348 4.59 8.879 11.453 8.879zm0 0"/><path id="C" d="M135.923 67.942c1.59 0 2.621-.781 2.621-2.051 0-1.074-.719-1.719-2.582-2.176-1.414-.344-1.883-.719-1.883-1.324 0-.695.625-1.133 1.664-1.133 1.074 0 1.738.539 1.762 1.414h.906c-.012-1.414-1.031-2.289-2.668-2.289-1.59 0-2.602.781-2.602 2.008 0 1.125.801 1.75 2.594 2.176 1.313.313 1.863.676 1.863 1.355 0 .719-.645 1.145-1.676 1.145-1.137 0-1.926-.562-1.949-1.5h-.914c.012 1.426 1.125 2.375 2.863 2.375zm0 0"/><path id="D" d="M148.561 67.805h4.539v-.855h-3.625v-2.434h3.25v-.844h-3.25v-2.301h3.508v-.852h-4.422zm0 0"/></defs></svg>