<svg xmlns="http://www.w3.org/2000/svg" xmlns:xlink="http://www.w3.org/1999/xlink" contentStyleType="text/css" height="657px" preserveAspectRatio="none" style="width:1236px;height:657px;background:#FFFFFF;" version="1.1" viewBox="0 0 1236 657" width="1236px" zoomAndPan="magnify"><defs/><g><ellipse cx="821.75" cy="20" fill="#222222" rx="10" ry="10" style="stroke:#222222;stroke-width:1.0;"/><rect fill="#F1F1F1" height="33.9688" rx="12.5" ry="12.5" style="stroke:#181818;stroke-width:0.5;" width="52" x="795.75" y="50"/><text fill="#000000" font-family="sans-serif" font-size="12" lengthAdjust="spacing" textLength="32" x="805.75" y="71.1387">Login</text><polygon fill="#F1F1F1" points="757.75,103.9688,885.75,103.9688,897.75,115.9688,885.75,127.9688,757.75,127.9688,745.75,115.9688,757.75,103.9688" style="stroke:#181818;stroke-width:0.5;"/><text fill="#000000" font-family="sans-serif" font-size="11" lengthAdjust="spacing" textLength="128" x="757.75" y="119.7769">User is authenticated?</text><text fill="#000000" font-family="sans-serif" font-size="11" lengthAdjust="spacing" textLength="21" x="724.75" y="113.3745">yes</text><text fill="#000000" font-family="sans-serif" font-size="11" lengthAdjust="spacing" textLength="14" x="897.75" y="113.3745">no</text><rect fill="#F1F1F1" height="33.9688" rx="12.5" ry="12.5" style="stroke:#181818;stroke-width:0.5;" width="122" x="439" y="137.9688"/><text fill="#000000" font-family="sans-serif" font-size="12" lengthAdjust="spacing" textLength="102" x="449" y="159.1074">Show main menu</text><rect fill="#F1F1F1" height="33.9688" rx="12.5" ry="12.5" style="stroke:#181818;stroke-width:0.5;" width="118" x="441" y="235.9375"/><text fill="#000000" font-family="sans-serif" font-size="12" lengthAdjust="spacing" textLength="98" x="451" y="257.0762">Select an option</text><polygon fill="#F1F1F1" points="32,289.9063,166,289.9063,178,301.9063,166,313.9063,32,313.9063,20,301.9063,32,289.9063" style="stroke:#181818;stroke-width:0.5;"/><text fill="#000000" font-family="sans-serif" font-size="11" lengthAdjust="spacing" textLength="21" x="103" y="324.1167">yes</text><text fill="#000000" font-family="sans-serif" font-size="11" lengthAdjust="spacing" textLength="134" x="32" y="305.7144">Option is "Create Note"</text><rect fill="#F1F1F1" height="33.9688" rx="12.5" ry="12.5" style="stroke:#181818;stroke-width:0.5;" width="131" x="33.5" y="345.6167"/><text fill="#000000" font-family="sans-serif" font-size="12" lengthAdjust="spacing" textLength="111" x="43.5" y="366.7554">Create a new note</text><polygon fill="#F1F1F1" points="252.5,289.9063,381.5,289.9063,393.5,301.9063,381.5,313.9063,252.5,313.9063,240.5,301.9063,252.5,289.9063" style="stroke:#181818;stroke-width:0.5;"/><text fill="#000000" font-family="sans-serif" font-size="11" lengthAdjust="spacing" textLength="21" x="321" y="324.1167">yes</text><text fill="#000000" font-family="sans-serif" font-size="11" lengthAdjust="spacing" textLength="129" x="252.5" y="305.7144">Option is "View Notes"</text><rect fill="#F1F1F1" height="33.9688" rx="12.5" ry="12.5" style="stroke:#181818;stroke-width:0.5;" width="149" x="242.5" y="345.6167"/><text fill="#000000" font-family="sans-serif" font-size="12" lengthAdjust="spacing" textLength="129" x="252.5" y="366.7554">Retrieve user's notes</text><polygon fill="#F1F1F1" points="271,412.9722,363,412.9722,375,424.9722,363,436.9722,271,436.9722,259,424.9722,271,412.9722" style="stroke:#181818;stroke-width:0.5;"/><text fill="#000000" font-family="sans-serif" font-size="11" lengthAdjust="spacing" textLength="92" x="271" y="428.7803">User has notes?</text><text fill="#000000" font-family="sans-serif" font-size="11" lengthAdjust="spacing" textLength="21" x="238" y="422.3779">yes</text><text fill="#000000" font-family="sans-serif" font-size="11" lengthAdjust="spacing" textLength="14" x="375" y="422.3779">no</text><rect fill="#F1F1F1" height="33.9688" rx="12.5" ry="12.5" style="stroke:#181818;stroke-width:0.5;" width="102" x="188" y="446.9722"/><text fill="#000000" font-family="sans-serif" font-size="12" lengthAdjust="spacing" textLength="82" x="198" y="468.1108">Display notes</text><rect fill="#F1F1F1" height="33.9688" rx="12.5" ry="12.5" style="stroke:#181818;stroke-width:0.5;" width="170" x="310" y="446.9722"/><text fill="#000000" font-family="sans-serif" font-size="12" lengthAdjust="spacing" textLength="150" x="320" y="468.1108">Display "No notes found"</text><polygon fill="#F1F1F1" points="317,486.9409,329,498.9409,317,510.9409,305,498.9409,317,486.9409" style="stroke:#181818;stroke-width:0.5;"/><polygon fill="#F1F1F1" points="522,289.9063,681,289.9063,693,301.9063,681,313.9063,522,313.9063,510,301.9063,522,289.9063" style="stroke:#181818;stroke-width:0.5;"/><text fill="#000000" font-family="sans-serif" font-size="11" lengthAdjust="spacing" textLength="21" x="605.5" y="324.1167">yes</text><text fill="#000000" font-family="sans-serif" font-size="11" lengthAdjust="spacing" textLength="159" x="522" y="305.7144">Option is "Create Category"</text><rect fill="#F1F1F1" height="33.9688" rx="12.5" ry="12.5" style="stroke:#181818;stroke-width:0.5;" width="158" x="522.5" y="345.6167"/><text fill="#000000" font-family="sans-serif" font-size="12" lengthAdjust="spacing" textLength="138" x="532.5" y="366.7554">Create a new category</text><polygon fill="#F1F1F1" points="725,289.9063,810,289.9063,822,301.9063,810,313.9063,725,313.9063,713,301.9063,725,289.9063" style="stroke:#181818;stroke-width:0.5;"/><text fill="#000000" font-family="sans-serif" font-size="11" lengthAdjust="spacing" textLength="21" x="771.5" y="324.1167">yes</text><text fill="#000000" font-family="sans-serif" font-size="11" lengthAdjust="spacing" textLength="85" x="725" y="305.7144">Option is "Exit"</text><text fill="#000000" font-family="sans-serif" font-size="11" lengthAdjust="spacing" textLength="69" x="822" y="299.312">other option</text><rect fill="#F1F1F1" height="33.9688" rx="12.5" ry="12.5" style="stroke:#181818;stroke-width:0.5;" width="61" x="737" y="345.6167"/><text fill="#000000" font-family="sans-serif" font-size="12" lengthAdjust="spacing" textLength="41" x="747" y="366.7554">Logout</text><ellipse cx="767.5" cy="423.9722" fill="none" rx="11" ry="11" style="stroke:#222222;stroke-width:1.0;"/><ellipse cx="767.5" cy="423.9722" fill="#222222" rx="6" ry="6" style="stroke:#111111;stroke-width:1.0;"/><rect fill="#F1F1F1" height="33.9688" rx="12.5" ry="12.5" style="stroke:#181818;stroke-width:0.5;" width="158" x="842" y="407.0854"/><text fill="#000000" font-family="sans-serif" font-size="12" lengthAdjust="spacing" textLength="138" x="852" y="428.2241">Display "Invalid option"</text><polygon fill="#F1F1F1" points="500,191.9375,512,203.9375,500,215.9375,488,203.9375,500,191.9375" style="stroke:#181818;stroke-width:0.5;"/><polygon fill="#F1F1F1" points="446.5,550.9409,553.5,550.9409,565.5,562.9409,553.5,574.9409,446.5,574.9409,434.5,562.9409,446.5,550.9409" style="stroke:#181818;stroke-width:0.5;"/><text fill="#000000" font-family="sans-serif" font-size="11" lengthAdjust="spacing" textLength="107" x="446.5" y="566.749">Option is not "Exit"</text><rect fill="#F1F1F1" height="33.9688" rx="12.5" ry="12.5" style="stroke:#181818;stroke-width:0.5;" width="199" x="1026" y="137.9688"/><text fill="#000000" font-family="sans-serif" font-size="12" lengthAdjust="spacing" textLength="179" x="1036" y="159.1074">Display "Authentication failed"</text><polygon fill="#F1F1F1" points="821.75,580.9409,833.75,592.9409,821.75,604.9409,809.75,592.9409,821.75,580.9409" style="stroke:#181818;stroke-width:0.5;"/><ellipse cx="821.75" cy="635.9409" fill="none" rx="11" ry="11" style="stroke:#222222;stroke-width:1.0;"/><ellipse cx="821.75" cy="635.9409" fill="#222222" rx="6" ry="6" style="stroke:#111111;stroke-width:1.0;"/><line style="stroke:#181818;stroke-width:1.0;" x1="821.75" x2="821.75" y1="30" y2="50"/><polygon fill="#181818" points="817.75,40,821.75,50,825.75,40,821.75,44" style="stroke:#181818;stroke-width:1.0;"/><line style="stroke:#181818;stroke-width:1.0;" x1="259" x2="239" y1="424.9722" y2="424.9722"/><line style="stroke:#181818;stroke-width:1.0;" x1="239" x2="239" y1="424.9722" y2="446.9722"/><polygon fill="#181818" points="235,436.9722,239,446.9722,243,436.9722,239,440.9722" style="stroke:#181818;stroke-width:1.0;"/><line style="stroke:#181818;stroke-width:1.0;" x1="375" x2="395" y1="424.9722" y2="424.9722"/><line style="stroke:#181818;stroke-width:1.0;" x1="395" x2="395" y1="424.9722" y2="446.9722"/><polygon fill="#181818" points="391,436.9722,395,446.9722,399,436.9722,395,440.9722" style="stroke:#181818;stroke-width:1.0;"/><line style="stroke:#181818;stroke-width:1.0;" x1="239" x2="239" y1="480.9409" y2="498.9409"/><line style="stroke:#181818;stroke-width:1.0;" x1="239" x2="305" y1="498.9409" y2="498.9409"/><polygon fill="#181818" points="295,494.9409,305,498.9409,295,502.9409,299,498.9409" style="stroke:#181818;stroke-width:1.0;"/><line style="stroke:#181818;stroke-width:1.0;" x1="395" x2="395" y1="480.9409" y2="498.9409"/><line style="stroke:#181818;stroke-width:1.0;" x1="395" x2="329" y1="498.9409" y2="498.9409"/><polygon fill="#181818" points="339,494.9409,329,498.9409,339,502.9409,335,498.9409" style="stroke:#181818;stroke-width:1.0;"/><line style="stroke:#181818;stroke-width:1.0;" x1="317" x2="317" y1="379.5854" y2="412.9722"/><polygon fill="#181818" points="313,402.9722,317,412.9722,321,402.9722,317,406.9722" style="stroke:#181818;stroke-width:1.0;"/><line style="stroke:#181818;stroke-width:1.0;" x1="767.5" x2="767.5" y1="379.5854" y2="412.9722"/><polygon fill="#181818" points="763.5,402.9722,767.5,412.9722,771.5,402.9722,767.5,406.9722" style="stroke:#181818;stroke-width:1.0;"/><line style="stroke:#181818;stroke-width:1.0;" x1="99" x2="99" y1="313.9063" y2="345.6167"/><polygon fill="#181818" points="95,335.6167,99,345.6167,103,335.6167,99,339.6167" style="stroke:#181818;stroke-width:1.0;"/><line style="stroke:#181818;stroke-width:1.0;" x1="99" x2="99" y1="379.5854" y2="530.9409"/><polygon fill="#181818" points="95,520.9409,99,530.9409,103,520.9409,99,524.9409" style="stroke:#181818;stroke-width:1.0;"/><line style="stroke:#181818;stroke-width:1.0;" x1="317" x2="317" y1="313.9063" y2="345.6167"/><polygon fill="#181818" points="313,335.6167,317,345.6167,321,335.6167,317,339.6167" style="stroke:#181818;stroke-width:1.0;"/><line style="stroke:#181818;stroke-width:1.0;" x1="317" x2="317" y1="510.9409" y2="530.9409"/><polygon fill="#181818" points="313,520.9409,317,530.9409,321,520.9409,317,524.9409" style="stroke:#181818;stroke-width:1.0;"/><line style="stroke:#181818;stroke-width:1.0;" x1="601.5" x2="601.5" y1="313.9063" y2="345.6167"/><polygon fill="#181818" points="597.5,335.6167,601.5,345.6167,605.5,335.6167,601.5,339.6167" style="stroke:#181818;stroke-width:1.0;"/><line style="stroke:#181818;stroke-width:1.0;" x1="601.5" x2="601.5" y1="379.5854" y2="530.9409"/><polygon fill="#181818" points="597.5,520.9409,601.5,530.9409,605.5,520.9409,601.5,524.9409" style="stroke:#181818;stroke-width:1.0;"/><line style="stroke:#181818;stroke-width:1.0;" x1="767.5" x2="767.5" y1="313.9063" y2="345.6167"/><polygon fill="#181818" points="763.5,335.6167,767.5,345.6167,771.5,335.6167,767.5,339.6167" style="stroke:#181818;stroke-width:1.0;"/><line style="stroke:#181818;stroke-width:1.0;" x1="178" x2="240.5" y1="301.9063" y2="301.9063"/><polygon fill="#181818" points="230.5,297.9063,240.5,301.9063,230.5,305.9063,234.5,301.9063" style="stroke:#181818;stroke-width:1.0;"/><line style="stroke:#181818;stroke-width:1.0;" x1="393.5" x2="510" y1="301.9063" y2="301.9063"/><polygon fill="#181818" points="500,297.9063,510,301.9063,500,305.9063,504,301.9063" style="stroke:#181818;stroke-width:1.0;"/><line style="stroke:#181818;stroke-width:1.0;" x1="693" x2="713" y1="301.9063" y2="301.9063"/><polygon fill="#181818" points="703,297.9063,713,301.9063,703,305.9063,707,301.9063" style="stroke:#181818;stroke-width:1.0;"/><line style="stroke:#181818;stroke-width:1.0;" x1="500" x2="500" y1="269.9063" y2="274.9063"/><line style="stroke:#181818;stroke-width:1.0;" x1="500" x2="99" y1="274.9063" y2="274.9063"/><line style="stroke:#181818;stroke-width:1.0;" x1="99" x2="99" y1="274.9063" y2="289.9063"/><polygon fill="#181818" points="95,279.9063,99,289.9063,103,279.9063,99,283.9063" style="stroke:#181818;stroke-width:1.0;"/><line style="stroke:#181818;stroke-width:1.0;" x1="822" x2="921" y1="301.9063" y2="301.9063"/><line style="stroke:#181818;stroke-width:1.0;" x1="921" x2="921" y1="301.9063" y2="407.0854"/><polygon fill="#181818" points="917,397.0854,921,407.0854,925,397.0854,921,401.0854" style="stroke:#181818;stroke-width:1.0;"/><line style="stroke:#181818;stroke-width:1.0;" x1="921" x2="921" y1="441.0542" y2="530.9409"/><polygon fill="#181818" points="917,520.9409,921,530.9409,925,520.9409,921,524.9409" style="stroke:#181818;stroke-width:1.0;"/><line style="stroke:#181818;stroke-width:1.0;" x1="99" x2="921" y1="530.9409" y2="530.9409"/><line style="stroke:#181818;stroke-width:1.0;" x1="500" x2="500" y1="215.9375" y2="235.9375"/><polygon fill="#181818" points="496,225.9375,500,235.9375,504,225.9375,500,229.9375" style="stroke:#181818;stroke-width:1.0;"/><line style="stroke:#181818;stroke-width:1.0;" x1="565.5" x2="1012" y1="562.9409" y2="562.9409"/><polygon fill="#181818" points="1008,399.5854,1012,389.5854,1016,399.5854,1012,395.5854" style="stroke:#181818;stroke-width:1.0;"/><line style="stroke:#181818;stroke-width:1.0;" x1="1012" x2="1012" y1="203.9375" y2="562.9409"/><line style="stroke:#181818;stroke-width:1.0;" x1="1012" x2="512" y1="203.9375" y2="203.9375"/><polygon fill="#181818" points="522,199.9375,512,203.9375,522,207.9375,518,203.9375" style="stroke:#181818;stroke-width:1.0;"/><line style="stroke:#181818;stroke-width:1.0;" x1="500" x2="500" y1="530.9409" y2="550.9409"/><polygon fill="#181818" points="496,540.9409,500,550.9409,504,540.9409,500,544.9409" style="stroke:#181818;stroke-width:1.0;"/><line style="stroke:#181818;stroke-width:1.0;" x1="500" x2="500" y1="171.9375" y2="191.9375"/><polygon fill="#181818" points="496,181.9375,500,191.9375,504,181.9375,500,185.9375" style="stroke:#181818;stroke-width:1.0;"/><line style="stroke:#181818;stroke-width:1.0;" x1="745.75" x2="500" y1="115.9688" y2="115.9688"/><line style="stroke:#181818;stroke-width:1.0;" x1="500" x2="500" y1="115.9688" y2="137.9688"/><polygon fill="#181818" points="496,127.9688,500,137.9688,504,127.9688,500,131.9688" style="stroke:#181818;stroke-width:1.0;"/><line style="stroke:#181818;stroke-width:1.0;" x1="897.75" x2="1125.5" y1="115.9688" y2="115.9688"/><line style="stroke:#181818;stroke-width:1.0;" x1="1125.5" x2="1125.5" y1="115.9688" y2="137.9688"/><polygon fill="#181818" points="1121.5,127.9688,1125.5,137.9688,1129.5,127.9688,1125.5,131.9688" style="stroke:#181818;stroke-width:1.0;"/><line style="stroke:#181818;stroke-width:1.0;" x1="500" x2="500" y1="574.9409" y2="592.9409"/><line style="stroke:#181818;stroke-width:1.0;" x1="500" x2="809.75" y1="592.9409" y2="592.9409"/><polygon fill="#181818" points="799.75,588.9409,809.75,592.9409,799.75,596.9409,803.75,592.9409" style="stroke:#181818;stroke-width:1.0;"/><line style="stroke:#181818;stroke-width:1.0;" x1="1125.5" x2="1125.5" y1="171.9375" y2="592.9409"/><line style="stroke:#181818;stroke-width:1.0;" x1="1125.5" x2="833.75" y1="592.9409" y2="592.9409"/><polygon fill="#181818" points="843.75,588.9409,833.75,592.9409,843.75,596.9409,839.75,592.9409" style="stroke:#181818;stroke-width:1.0;"/><line style="stroke:#181818;stroke-width:1.0;" x1="821.75" x2="821.75" y1="83.9688" y2="103.9688"/><polygon fill="#181818" points="817.75,93.9688,821.75,103.9688,825.75,93.9688,821.75,97.9688" style="stroke:#181818;stroke-width:1.0;"/><line style="stroke:#181818;stroke-width:1.0;" x1="821.75" x2="821.75" y1="604.9409" y2="624.9409"/><polygon fill="#181818" points="817.75,614.9409,821.75,624.9409,825.75,614.9409,821.75,618.9409" style="stroke:#181818;stroke-width:1.0;"/><!--SRC=[XPB1ReCm38RlF8N5PVGLog6QkXqcJQsqQRj7O8ebQgF4bF7sIo3GhgBQ9KhYtv_-tubJOpNPlik9E4-eWkpBeGLoO3gjaPKAerZkDX1Ea0teDWd0zhEM7iw66Cx8NUwlBBPer6z25Hii50o3j4h2-NWTwCVn7FZftdezma4Kqply28br0umzi5TD56mStf6-oIi2nws2Fb0juGMXyz6UtCXoUQmkaMiJAxiLXgUya6iRC_pj3cOWOrdHfGUPj519nsMwj719rQCaCVFUBoUnm_zpAQBouMnUVqXNCVx9fTFPbLDfasiYyNeR7s_fM9AzySKqLCPwJ3Rdclu1z3KrUEl4ps9sazoExOfzllwuq5CPJmXpcyZ1uIy0]--></g></svg>