<svg xmlns="http://www.w3.org/2000/svg" xmlns:xlink="http://www.w3.org/1999/xlink" contentStyleType="text/css" height="654px" preserveAspectRatio="none" style="width:261px;height:654px;background:#FFFFFF;" version="1.1" viewBox="0 0 261 654" width="261px" zoomAndPan="magnify"><defs/><g><!--class User--><g id="elem_User"><rect codeLine="1" fill="#F1F1F1" height="194.6719" id="User" rx="2.5" ry="2.5" style="stroke:#181818;stroke-width:0.5;" width="149" x="105" y="7"/><ellipse cx="159.75" cy="23" fill="#ADD1B2" rx="11" ry="11" style="stroke:#181818;stroke-width:1.0;"/><path d="M162.0938,18.6719 C161.1563,18.2344 160.5625,18.0938 159.6875,18.0938 C157.0625,18.0938 155.0625,20.1719 155.0625,22.8906 L155.0625,24.0156 C155.0625,26.5938 157.1719,28.4844 160.0625,28.4844 C161.2813,28.4844 162.4375,28.1875 163.1875,27.6406 C163.7656,27.2344 164.0938,26.7813 164.0938,26.3906 C164.0938,25.9375 163.7031,25.5469 163.2344,25.5469 C163.0156,25.5469 162.8125,25.625 162.625,25.8125 C162.1719,26.2969 162.1719,26.2969 161.9844,26.3906 C161.5625,26.6563 160.875,26.7813 160.1094,26.7813 C158.0625,26.7813 156.7656,25.6875 156.7656,23.9844 L156.7656,22.8906 C156.7656,21.1094 158.0156,19.7969 159.75,19.7969 C160.3281,19.7969 160.9375,19.9531 161.4063,20.2031 C161.8906,20.4844 162.0625,20.7031 162.1563,21.1094 C162.2188,21.5156 162.25,21.6406 162.3906,21.7656 C162.5313,21.9063 162.7656,22.0156 162.9844,22.0156 C163.25,22.0156 163.5156,21.875 163.6875,21.6563 C163.7969,21.5 163.8281,21.3125 163.8281,20.8906 L163.8281,19.4688 C163.8281,19.0313 163.8125,18.9063 163.7188,18.75 C163.5625,18.4844 163.2813,18.3438 162.9844,18.3438 C162.6875,18.3438 162.4844,18.4375 162.2656,18.75 L162.0938,18.6719 Z " fill="#000000"/><text fill="#000000" font-family="sans-serif" font-size="14" lengthAdjust="spacing" textLength="31" x="180.25" y="27.8467">User</text><line style="stroke:#181818;stroke-width:0.5;" x1="106" x2="253" y1="39" y2="39"/><rect fill="none" height="6" style="stroke:#C82930;stroke-width:1.0;" width="6" x="113" y="49.6484"/><text fill="#000000" font-family="sans-serif" font-size="14" lengthAdjust="spacing" textLength="72" x="125" y="55.9951">userId: int</text><rect fill="none" height="6" style="stroke:#C82930;stroke-width:1.0;" width="6" x="113" y="65.9453"/><text fill="#000000" font-family="sans-serif" font-size="14" lengthAdjust="spacing" textLength="123" x="125" y="72.292">username: String</text><rect fill="none" height="6" style="stroke:#C82930;stroke-width:1.0;" width="6" x="113" y="82.2422"/><text fill="#000000" font-family="sans-serif" font-size="14" lengthAdjust="spacing" textLength="120" x="125" y="88.5889">password: String</text><line style="stroke:#181818;stroke-width:0.5;" x1="106" x2="253" y1="95.8906" y2="95.8906"/><ellipse cx="116" cy="109.5391" fill="#84BE84" rx="3" ry="3" style="stroke:#038048;stroke-width:1.0;"/><text fill="#000000" font-family="sans-serif" font-size="14" lengthAdjust="spacing" textLength="67" x="125" y="112.8857">register()</text><ellipse cx="116" cy="125.8359" fill="#84BE84" rx="3" ry="3" style="stroke:#038048;stroke-width:1.0;"/><text fill="#000000" font-family="sans-serif" font-size="14" lengthAdjust="spacing" textLength="45" x="125" y="129.1826">login()</text><ellipse cx="116" cy="142.1328" fill="#84BE84" rx="3" ry="3" style="stroke:#038048;stroke-width:1.0;"/><text fill="#000000" font-family="sans-serif" font-size="14" lengthAdjust="spacing" textLength="56" x="125" y="145.4795">logout()</text><ellipse cx="116" cy="158.4297" fill="#84BE84" rx="3" ry="3" style="stroke:#038048;stroke-width:1.0;"/><text fill="#000000" font-family="sans-serif" font-size="14" lengthAdjust="spacing" textLength="92" x="125" y="161.7764">createNote()</text><ellipse cx="116" cy="174.7266" fill="#84BE84" rx="3" ry="3" style="stroke:#038048;stroke-width:1.0;"/><text fill="#000000" font-family="sans-serif" font-size="14" lengthAdjust="spacing" textLength="115" x="125" y="178.0732">viewOwnNotes()</text><ellipse cx="116" cy="191.0234" fill="#84BE84" rx="3" ry="3" style="stroke:#038048;stroke-width:1.0;"/><text fill="#000000" font-family="sans-serif" font-size="14" lengthAdjust="spacing" textLength="123" x="125" y="194.3701">createCategory()</text></g><!--class Note--><g id="elem_Note"><rect codeLine="13" fill="#F1F1F1" height="162.0781" id="Note" rx="2.5" ry="2.5" style="stroke:#181818;stroke-width:0.5;" width="137" x="7" y="279"/><ellipse cx="53.75" cy="295" fill="#ADD1B2" rx="11" ry="11" style="stroke:#181818;stroke-width:1.0;"/><path d="M56.0938,290.6719 C55.1563,290.2344 54.5625,290.0938 53.6875,290.0938 C51.0625,290.0938 49.0625,292.1719 49.0625,294.8906 L49.0625,296.0156 C49.0625,298.5938 51.1719,300.4844 54.0625,300.4844 C55.2813,300.4844 56.4375,300.1875 57.1875,299.6406 C57.7656,299.2344 58.0938,298.7813 58.0938,298.3906 C58.0938,297.9375 57.7031,297.5469 57.2344,297.5469 C57.0156,297.5469 56.8125,297.625 56.625,297.8125 C56.1719,298.2969 56.1719,298.2969 55.9844,298.3906 C55.5625,298.6563 54.875,298.7813 54.1094,298.7813 C52.0625,298.7813 50.7656,297.6875 50.7656,295.9844 L50.7656,294.8906 C50.7656,293.1094 52.0156,291.7969 53.75,291.7969 C54.3281,291.7969 54.9375,291.9531 55.4063,292.2031 C55.8906,292.4844 56.0625,292.7031 56.1563,293.1094 C56.2188,293.5156 56.25,293.6406 56.3906,293.7656 C56.5313,293.9063 56.7656,294.0156 56.9844,294.0156 C57.25,294.0156 57.5156,293.875 57.6875,293.6563 C57.7969,293.5 57.8281,293.3125 57.8281,292.8906 L57.8281,291.4688 C57.8281,291.0313 57.8125,290.9063 57.7188,290.75 C57.5625,290.4844 57.2813,290.3438 56.9844,290.3438 C56.6875,290.3438 56.4844,290.4375 56.2656,290.75 L56.0938,290.6719 Z " fill="#000000"/><text fill="#000000" font-family="sans-serif" font-size="14" lengthAdjust="spacing" textLength="35" x="74.25" y="299.8467">Note</text><line style="stroke:#181818;stroke-width:0.5;" x1="8" x2="143" y1="311" y2="311"/><rect fill="none" height="6" style="stroke:#C82930;stroke-width:1.0;" width="6" x="15" y="321.6484"/><text fill="#000000" font-family="sans-serif" font-size="14" lengthAdjust="spacing" textLength="76" x="27" y="327.9951">noteId: int</text><rect fill="none" height="6" style="stroke:#C82930;stroke-width:1.0;" width="6" x="15" y="337.9453"/><text fill="#000000" font-family="sans-serif" font-size="14" lengthAdjust="spacing" textLength="72" x="27" y="344.292">userId: int</text><rect fill="none" height="6" style="stroke:#C82930;stroke-width:1.0;" width="6" x="15" y="354.2422"/><text fill="#000000" font-family="sans-serif" font-size="14" lengthAdjust="spacing" textLength="106" x="27" y="360.5889">categoryId: int</text><rect fill="none" height="6" style="stroke:#C82930;stroke-width:1.0;" width="6" x="15" y="370.5391"/><text fill="#000000" font-family="sans-serif" font-size="14" lengthAdjust="spacing" textLength="84" x="27" y="376.8857">title: String</text><rect fill="none" height="6" style="stroke:#C82930;stroke-width:1.0;" width="6" x="15" y="386.8359"/><text fill="#000000" font-family="sans-serif" font-size="14" lengthAdjust="spacing" textLength="111" x="27" y="393.1826">content: String</text><line style="stroke:#181818;stroke-width:0.5;" x1="8" x2="143" y1="400.4844" y2="400.4844"/><ellipse cx="18" cy="414.1328" fill="#84BE84" rx="3" ry="3" style="stroke:#038048;stroke-width:1.0;"/><text fill="#000000" font-family="sans-serif" font-size="14" lengthAdjust="spacing" textLength="74" x="27" y="417.4795">editNote()</text><ellipse cx="18" cy="430.4297" fill="#84BE84" rx="3" ry="3" style="stroke:#038048;stroke-width:1.0;"/><text fill="#000000" font-family="sans-serif" font-size="14" lengthAdjust="spacing" textLength="92" x="27" y="433.7764">deleteNote()</text></g><!--class Category--><g id="elem_Category"><rect codeLine="23" fill="#F1F1F1" height="129.4844" id="Category" rx="2.5" ry="2.5" style="stroke:#181818;stroke-width:0.5;" width="149" x="82" y="518"/><ellipse cx="119.95" cy="534" fill="#ADD1B2" rx="11" ry="11" style="stroke:#181818;stroke-width:1.0;"/><path d="M122.2938,529.6719 C121.3563,529.2344 120.7625,529.0938 119.8875,529.0938 C117.2625,529.0938 115.2625,531.1719 115.2625,533.8906 L115.2625,535.0156 C115.2625,537.5938 117.3719,539.4844 120.2625,539.4844 C121.4813,539.4844 122.6375,539.1875 123.3875,538.6406 C123.9656,538.2344 124.2938,537.7813 124.2938,537.3906 C124.2938,536.9375 123.9031,536.5469 123.4344,536.5469 C123.2156,536.5469 123.0125,536.625 122.825,536.8125 C122.3719,537.2969 122.3719,537.2969 122.1844,537.3906 C121.7625,537.6563 121.075,537.7813 120.3094,537.7813 C118.2625,537.7813 116.9656,536.6875 116.9656,534.9844 L116.9656,533.8906 C116.9656,532.1094 118.2156,530.7969 119.95,530.7969 C120.5281,530.7969 121.1375,530.9531 121.6063,531.2031 C122.0906,531.4844 122.2625,531.7031 122.3563,532.1094 C122.4188,532.5156 122.45,532.6406 122.5906,532.7656 C122.7313,532.9063 122.9656,533.0156 123.1844,533.0156 C123.45,533.0156 123.7156,532.875 123.8875,532.6563 C123.9969,532.5 124.0281,532.3125 124.0281,531.8906 L124.0281,530.4688 C124.0281,530.0313 124.0125,529.9063 123.9188,529.75 C123.7625,529.4844 123.4813,529.3438 123.1844,529.3438 C122.8875,529.3438 122.6844,529.4375 122.4656,529.75 L122.2938,529.6719 Z " fill="#000000"/><text fill="#000000" font-family="sans-serif" font-size="14" lengthAdjust="spacing" textLength="66" x="139.05" y="538.8467">Category</text><line style="stroke:#181818;stroke-width:0.5;" x1="83" x2="230" y1="550" y2="550"/><rect fill="none" height="6" style="stroke:#C82930;stroke-width:1.0;" width="6" x="90" y="560.6484"/><text fill="#000000" font-family="sans-serif" font-size="14" lengthAdjust="spacing" textLength="106" x="102" y="566.9951">categoryId: int</text><rect fill="none" height="6" style="stroke:#C82930;stroke-width:1.0;" width="6" x="90" y="576.9453"/><text fill="#000000" font-family="sans-serif" font-size="14" lengthAdjust="spacing" textLength="72" x="102" y="583.292">userId: int</text><rect fill="none" height="6" style="stroke:#C82930;stroke-width:1.0;" width="6" x="90" y="593.2422"/><text fill="#000000" font-family="sans-serif" font-size="14" lengthAdjust="spacing" textLength="93" x="102" y="599.5889">name: String</text><line style="stroke:#181818;stroke-width:0.5;" x1="83" x2="230" y1="606.8906" y2="606.8906"/><ellipse cx="93" cy="620.5391" fill="#84BE84" rx="3" ry="3" style="stroke:#038048;stroke-width:1.0;"/><text fill="#000000" font-family="sans-serif" font-size="14" lengthAdjust="spacing" textLength="105" x="102" y="623.8857">editCategory()</text><ellipse cx="93" cy="636.8359" fill="#84BE84" rx="3" ry="3" style="stroke:#038048;stroke-width:1.0;"/><text fill="#000000" font-family="sans-serif" font-size="14" lengthAdjust="spacing" textLength="123" x="102" y="640.1826">deleteCategory()</text></g><!--reverse link User to Note--><g id="link_User_Note"><path codeLine="31" d="M134.847,214.342 C125.971,235.977 116.804,258.322 108.408,278.787 " fill="none" id="User-backto-Note" style="stroke:#181818;stroke-width:1.0;"/><polygon fill="#181818" points="139.885,202.061,133.907,206.0938,135.3303,213.163,141.3083,209.1302,139.885,202.061" style="stroke:#181818;stroke-width:1.0;"/><text fill="#000000" font-family="sans-serif" font-size="13" lengthAdjust="spacing" textLength="34" x="128.5" y="245.0669">owns</text><text fill="#000000" font-family="sans-serif" font-size="13" lengthAdjust="spacing" textLength="8" x="128.682" y="221.8602">1</text><text fill="#000000" font-family="sans-serif" font-size="13" lengthAdjust="spacing" textLength="23" x="87.3145" y="267.9553">0..*</text></g><!--reverse link User to Category--><g id="link_User_Category"><path codeLine="32" d="M195.747,215.322 C204.097,292.293 209.372,397.223 192.5,488 C190.672,497.833 187.85,507.966 184.571,517.768 " fill="none" id="User-backto-Category" style="stroke:#181818;stroke-width:1.0;"/><polygon fill="#181818" points="194.27,202.253,190.9685,208.6639,195.6165,214.1772,198.918,207.7663,194.27,202.253" style="stroke:#181818;stroke-width:1.0;"/><text fill="#000000" font-family="sans-serif" font-size="13" lengthAdjust="spacing" textLength="34" x="205.5" y="364.5669">owns</text><text fill="#000000" font-family="sans-serif" font-size="13" lengthAdjust="spacing" textLength="8" x="187.0273" y="221.7367">1</text><text fill="#000000" font-family="sans-serif" font-size="13" lengthAdjust="spacing" textLength="23" x="163.3835" y="506.9153">0..*</text></g><!--link Note to Category--><g id="link_Note_Category"><path codeLine="33" d="M102.6712,441.13 C108.124,456.72 113.901,472.904 119.5,488 C123.082,497.657 126.978,507.829 130.853,517.766 " fill="none" id="Note-Category" style="stroke:#181818;stroke-width:1.0;"/><text fill="#000000" font-family="sans-serif" font-size="13" lengthAdjust="spacing" textLength="67" x="120.5" y="484.0669">belongs to</text><text fill="#000000" font-family="sans-serif" font-size="13" lengthAdjust="spacing" textLength="24" x="80.0224" y="461.0929">0..1</text><text fill="#000000" font-family="sans-serif" font-size="13" lengthAdjust="spacing" textLength="23" x="103.79" y="506.9131">0..*</text></g><!--SRC=[RP71QiCm38RlUGgHKvkIibvptMcNxb3w0AaZZC6JXgqibD9th-DwYHDoC4Y_Vg5FihAjzt3rwE1H0DJGX_2hQy2GJ3crFzZ0HPmX7SNVq3ImwpBn00wryO9kju-fPMreZhcNb2Y7hU2P1PFmPt3u7cXK_CBp6PvcTm_YioXKH1rT2PL2k4RDSvNQSqsCsEKkYacGPB4ATaOom0ujJiGJoJzTejcQjYPQ7V8zADjo7hPSFVvFUIgXgcieFux7gdmVeW4Uo6_M9xpaYVwn5coRhXjQ9kr1-0K0]--></g></svg>