<svg xmlns="http://www.w3.org/2000/svg" xmlns:xlink="http://www.w3.org/1999/xlink" contentStyleType="text/css" height="1069px" preserveAspectRatio="none" style="width:498px;height:1069px;background:#FFFFFF;" version="1.1" viewBox="0 0 498 1069" width="498px" zoomAndPan="magnify"><defs/><g><rect fill="#FFFFFF" height="314.1328" style="stroke:#181818;stroke-width:1.0;" width="10" x="43.5" y="253.0938"/><rect fill="#FFFFFF" height="116.5313" style="stroke:#181818;stroke-width:1.0;" width="10" x="48.5" y="348.4922"/><rect fill="#FFFFFF" height="116.5313" style="stroke:#181818;stroke-width:1.0;" width="10" x="43.5" y="611.1641"/><rect fill="#FFFFFF" height="116.5313" style="stroke:#181818;stroke-width:1.0;" width="10" x="43.5" y="771.6328"/><rect fill="#FFFFFF" height="454.7969" style="stroke:#181818;stroke-width:1.0;" width="10" x="263.5" y="112.4297"/><rect fill="#FFFFFF" height="87.3984" style="stroke:#181818;stroke-width:1.0;" width="10" x="268.5" y="377.625"/><rect fill="#FFFFFF" height="87.3984" style="stroke:#181818;stroke-width:1.0;" width="10" x="263.5" y="640.2969"/><rect fill="#FFFFFF" height="87.3984" style="stroke:#181818;stroke-width:1.0;" width="10" x="263.5" y="800.7656"/><rect fill="#FFFFFF" height="29.1328" style="stroke:#181818;stroke-width:1.0;" width="10" x="439.5" y="141.5625"/><rect fill="#FFFFFF" height="29.1328" style="stroke:#181818;stroke-width:1.0;" width="10" x="439.5" y="406.7578"/><rect fill="#FFFFFF" height="29.1328" style="stroke:#181818;stroke-width:1.0;" width="10" x="439.5" y="508.9609"/><rect fill="#FFFFFF" height="29.1328" style="stroke:#181818;stroke-width:1.0;" width="10" x="439.5" y="669.4297"/><rect fill="#FFFFFF" height="29.1328" style="stroke:#181818;stroke-width:1.0;" width="10" x="439.5" y="829.8984"/><rect fill="none" height="661.0078" style="stroke:#000000;stroke-width:1.5;" width="471.5" x="20" y="310.2266"/><rect fill="none" height="17.1328" style="stroke:#000000;stroke-width:1.5;" width="93" x="40" y="903.1641"/><line style="stroke:#181818;stroke-width:0.5;stroke-dasharray:5.0,5.0;" x1="48" x2="48" y1="81.2969" y2="988.2344"/><line style="stroke:#181818;stroke-width:0.5;stroke-dasharray:5.0,5.0;" x1="268.5" x2="268.5" y1="81.2969" y2="988.2344"/><line style="stroke:#181818;stroke-width:0.5;stroke-dasharray:5.0,5.0;" x1="444.5" x2="444.5" y1="81.2969" y2="988.2344"/><text fill="#000000" font-family="sans-serif" font-size="14" lengthAdjust="spacing" textLength="31" x="30" y="77.9951">User</text><ellipse cx="48.5" cy="13.5" fill="#E2E2F0" rx="8" ry="8" style="stroke:#181818;stroke-width:0.5;"/><path d="M48.5,21.5 L48.5,48.5 M35.5,29.5 L61.5,29.5 M48.5,48.5 L35.5,63.5 M48.5,48.5 L61.5,63.5 " fill="none" style="stroke:#181818;stroke-width:0.5;"/><text fill="#000000" font-family="sans-serif" font-size="14" lengthAdjust="spacing" textLength="31" x="30" y="1000.2295">User</text><ellipse cx="48.5" cy="1012.0313" fill="#E2E2F0" rx="8" ry="8" style="stroke:#181818;stroke-width:0.5;"/><path d="M48.5,1020.0313 L48.5,1047.0313 M35.5,1028.0313 L61.5,1028.0313 M48.5,1047.0313 L35.5,1062.0313 M48.5,1047.0313 L61.5,1062.0313 " fill="none" style="stroke:#181818;stroke-width:0.5;"/><rect fill="#E2E2F0" height="30.2969" rx="2.5" ry="2.5" style="stroke:#181818;stroke-width:0.5;" width="132" x="202.5" y="50"/><text fill="#000000" font-family="sans-serif" font-size="14" lengthAdjust="spacing" textLength="118" x="209.5" y="69.9951">NoteXpress App</text><rect fill="#E2E2F0" height="30.2969" rx="2.5" ry="2.5" style="stroke:#181818;stroke-width:0.5;" width="132" x="202.5" y="987.2344"/><text fill="#000000" font-family="sans-serif" font-size="14" lengthAdjust="spacing" textLength="118" x="209.5" y="1007.2295">NoteXpress App</text><text fill="#000000" font-family="sans-serif" font-size="14" lengthAdjust="spacing" textLength="68" x="407.5" y="77.9951">Database</text><path d="M426.5,29 C426.5,19 444.5,19 444.5,19 C444.5,19 462.5,19 462.5,29 L462.5,55 C462.5,65 444.5,65 444.5,65 C444.5,65 426.5,65 426.5,55 L426.5,29 " fill="#E2E2F0" style="stroke:#181818;stroke-width:1.5;"/><path d="M426.5,29 C426.5,39 444.5,39 444.5,39 C444.5,39 462.5,39 462.5,29 " fill="none" style="stroke:#181818;stroke-width:1.5;"/><text fill="#000000" font-family="sans-serif" font-size="14" lengthAdjust="spacing" textLength="68" x="407.5" y="1000.2295">Database</text><path d="M426.5,1013.5313 C426.5,1003.5313 444.5,1003.5313 444.5,1003.5313 C444.5,1003.5313 462.5,1003.5313 462.5,1013.5313 L462.5,1039.5313 C462.5,1049.5313 444.5,1049.5313 444.5,1049.5313 C444.5,1049.5313 426.5,1049.5313 426.5,1039.5313 L426.5,1013.5313 " fill="#E2E2F0" style="stroke:#181818;stroke-width:1.5;"/><path d="M426.5,1013.5313 C426.5,1023.5313 444.5,1023.5313 444.5,1023.5313 C444.5,1023.5313 462.5,1023.5313 462.5,1013.5313 " fill="none" style="stroke:#181818;stroke-width:1.5;"/><rect fill="#FFFFFF" height="314.1328" style="stroke:#181818;stroke-width:1.0;" width="10" x="43.5" y="253.0938"/><rect fill="#FFFFFF" height="116.5313" style="stroke:#181818;stroke-width:1.0;" width="10" x="48.5" y="348.4922"/><rect fill="#FFFFFF" height="116.5313" style="stroke:#181818;stroke-width:1.0;" width="10" x="43.5" y="611.1641"/><rect fill="#FFFFFF" height="116.5313" style="stroke:#181818;stroke-width:1.0;" width="10" x="43.5" y="771.6328"/><rect fill="#FFFFFF" height="454.7969" style="stroke:#181818;stroke-width:1.0;" width="10" x="263.5" y="112.4297"/><rect fill="#FFFFFF" height="87.3984" style="stroke:#181818;stroke-width:1.0;" width="10" x="268.5" y="377.625"/><rect fill="#FFFFFF" height="87.3984" style="stroke:#181818;stroke-width:1.0;" width="10" x="263.5" y="640.2969"/><rect fill="#FFFFFF" height="87.3984" style="stroke:#181818;stroke-width:1.0;" width="10" x="263.5" y="800.7656"/><rect fill="#FFFFFF" height="29.1328" style="stroke:#181818;stroke-width:1.0;" width="10" x="439.5" y="141.5625"/><rect fill="#FFFFFF" height="29.1328" style="stroke:#181818;stroke-width:1.0;" width="10" x="439.5" y="406.7578"/><rect fill="#FFFFFF" height="29.1328" style="stroke:#181818;stroke-width:1.0;" width="10" x="439.5" y="508.9609"/><rect fill="#FFFFFF" height="29.1328" style="stroke:#181818;stroke-width:1.0;" width="10" x="439.5" y="669.4297"/><rect fill="#FFFFFF" height="29.1328" style="stroke:#181818;stroke-width:1.0;" width="10" x="439.5" y="829.8984"/><polygon fill="#181818" points="251.5,108.4297,261.5,112.4297,251.5,116.4297,255.5,112.4297" style="stroke:#181818;stroke-width:1.0;"/><line style="stroke:#181818;stroke-width:1.0;" x1="48.5" x2="257.5" y1="112.4297" y2="112.4297"/><text fill="#000000" font-family="sans-serif" font-size="13" lengthAdjust="spacing" textLength="34" x="55.5" y="107.3638">Login</text><polygon fill="#181818" points="427.5,137.5625,437.5,141.5625,427.5,145.5625,431.5,141.5625" style="stroke:#181818;stroke-width:1.0;"/><line style="stroke:#181818;stroke-width:1.0;" x1="273.5" x2="433.5" y1="141.5625" y2="141.5625"/><text fill="#000000" font-family="sans-serif" font-size="13" lengthAdjust="spacing" textLength="115" x="280.5" y="136.4966">Authenticate User</text><polygon fill="#181818" points="284.5,166.6953,274.5,170.6953,284.5,174.6953,280.5,170.6953" style="stroke:#181818;stroke-width:1.0;"/><line style="stroke:#181818;stroke-width:1.0;stroke-dasharray:2.0,2.0;" x1="278.5" x2="443.5" y1="170.6953" y2="170.6953"/><text fill="#000000" font-family="sans-serif" font-size="13" lengthAdjust="spacing" textLength="137" x="290.5" y="165.6294">Authentication Result</text><polygon fill="#181818" points="59.5,219.9609,49.5,223.9609,59.5,227.9609,55.5,223.9609" style="stroke:#181818;stroke-width:1.0;"/><line style="stroke:#181818;stroke-width:1.0;" x1="53.5" x2="262.5" y1="223.9609" y2="223.9609"/><text fill="#000000" font-family="sans-serif" font-size="13" lengthAdjust="spacing" textLength="112" x="65.5" y="218.895">Show main menu</text><polygon fill="#181818" points="251.5,249.0938,261.5,253.0938,251.5,257.0938,255.5,253.0938" style="stroke:#181818;stroke-width:1.0;"/><line style="stroke:#181818;stroke-width:1.0;" x1="53.5" x2="257.5" y1="253.0938" y2="253.0938"/><text fill="#000000" font-family="sans-serif" font-size="13" lengthAdjust="spacing" textLength="103" x="60.5" y="248.0278">Select an option</text><line style="stroke:#181818;stroke-width:1.0;" x1="273.5" x2="315.5" y1="282.2266" y2="282.2266"/><line style="stroke:#181818;stroke-width:1.0;" x1="315.5" x2="315.5" y1="282.2266" y2="295.2266"/><line style="stroke:#181818;stroke-width:1.0;" x1="274.5" x2="315.5" y1="295.2266" y2="295.2266"/><polygon fill="#181818" points="284.5,291.2266,274.5,295.2266,284.5,299.2266,280.5,295.2266" style="stroke:#181818;stroke-width:1.0;"/><text fill="#000000" font-family="sans-serif" font-size="13" lengthAdjust="spacing" textLength="152" x="280.5" y="277.1606">Process selected option</text><path d="M20,310.2266 L86,310.2266 L86,317.3594 L76,327.3594 L20,327.3594 L20,310.2266 " fill="#EEEEEE" style="stroke:#000000;stroke-width:1.5;"/><rect fill="none" height="661.0078" style="stroke:#000000;stroke-width:1.5;" width="471.5" x="20" y="310.2266"/><text fill="#000000" font-family="sans-serif" font-size="13" font-weight="bold" lengthAdjust="spacing" textLength="21" x="35" y="323.2935">alt</text><text fill="#000000" font-family="sans-serif" font-size="11" font-weight="bold" lengthAdjust="spacing" textLength="168" x="101" y="322.437">[Option is "Create Note"]</text><polygon fill="#181818" points="69.5,344.4922,59.5,348.4922,69.5,352.4922,65.5,348.4922" style="stroke:#181818;stroke-width:1.0;"/><line style="stroke:#181818;stroke-width:1.0;" x1="63.5" x2="262.5" y1="348.4922" y2="348.4922"/><text fill="#000000" font-family="sans-serif" font-size="13" lengthAdjust="spacing" textLength="119" x="75.5" y="343.4263">Create a new note</text><polygon fill="#181818" points="256.5,373.625,266.5,377.625,256.5,381.625,260.5,377.625" style="stroke:#181818;stroke-width:1.0;"/><line style="stroke:#181818;stroke-width:1.0;" x1="58.5" x2="262.5" y1="377.625" y2="377.625"/><text fill="#000000" font-family="sans-serif" font-size="13" lengthAdjust="spacing" textLength="124" x="65.5" y="372.5591">Submit note details</text><polygon fill="#181818" points="427.5,402.7578,437.5,406.7578,427.5,410.7578,431.5,406.7578" style="stroke:#181818;stroke-width:1.0;"/><line style="stroke:#181818;stroke-width:1.0;" x1="278.5" x2="433.5" y1="406.7578" y2="406.7578"/><text fill="#000000" font-family="sans-serif" font-size="13" lengthAdjust="spacing" textLength="65" x="285.5" y="401.6919">Save note</text><polygon fill="#181818" points="289.5,431.8906,279.5,435.8906,289.5,439.8906,285.5,435.8906" style="stroke:#181818;stroke-width:1.0;"/><line style="stroke:#181818;stroke-width:1.0;stroke-dasharray:2.0,2.0;" x1="283.5" x2="443.5" y1="435.8906" y2="435.8906"/><text fill="#000000" font-family="sans-serif" font-size="13" lengthAdjust="spacing" textLength="73" x="295.5" y="430.8247">Note saved</text><polygon fill="#181818" points="64.5,461.0234,54.5,465.0234,64.5,469.0234,60.5,465.0234" style="stroke:#181818;stroke-width:1.0;"/><line style="stroke:#181818;stroke-width:1.0;stroke-dasharray:2.0,2.0;" x1="58.5" x2="262.5" y1="465.0234" y2="465.0234"/><text fill="#000000" font-family="sans-serif" font-size="13" lengthAdjust="spacing" textLength="157" x="70.5" y="459.9575">Note creation successful</text><line style="stroke:#000000;stroke-width:1.0;stroke-dasharray:2.0,2.0;" x1="20" x2="491.5" y1="474.0234" y2="474.0234"/><text fill="#000000" font-family="sans-serif" font-size="11" font-weight="bold" lengthAdjust="spacing" textLength="160" x="25" y="484.2339">[Option is "View Notes"]</text><polygon fill="#181818" points="427.5,504.9609,437.5,508.9609,427.5,512.9609,431.5,508.9609" style="stroke:#181818;stroke-width:1.0;"/><line style="stroke:#181818;stroke-width:1.0;" x1="273.5" x2="433.5" y1="508.9609" y2="508.9609"/><text fill="#000000" font-family="sans-serif" font-size="13" lengthAdjust="spacing" textLength="136" x="280.5" y="503.895">Retrieve user's notes</text><polygon fill="#181818" points="284.5,534.0938,274.5,538.0938,284.5,542.0938,280.5,538.0938" style="stroke:#181818;stroke-width:1.0;"/><line style="stroke:#181818;stroke-width:1.0;stroke-dasharray:2.0,2.0;" x1="278.5" x2="443.5" y1="538.0938" y2="538.0938"/><text fill="#000000" font-family="sans-serif" font-size="13" lengthAdjust="spacing" textLength="79" x="290.5" y="533.0278">User's notes</text><polygon fill="#181818" points="59.5,563.2266,49.5,567.2266,59.5,571.2266,55.5,567.2266" style="stroke:#181818;stroke-width:1.0;"/><line style="stroke:#181818;stroke-width:1.0;stroke-dasharray:2.0,2.0;" x1="53.5" x2="267.5" y1="567.2266" y2="567.2266"/><text fill="#000000" font-family="sans-serif" font-size="13" lengthAdjust="spacing" textLength="129" x="65.5" y="562.1606">Display user's notes</text><line style="stroke:#000000;stroke-width:1.0;stroke-dasharray:2.0,2.0;" x1="20" x2="491.5" y1="576.2266" y2="576.2266"/><text fill="#000000" font-family="sans-serif" font-size="11" font-weight="bold" lengthAdjust="spacing" textLength="197" x="25" y="586.437">[Option is "Create Category"]</text><polygon fill="#181818" points="64.5,607.1641,54.5,611.1641,64.5,615.1641,60.5,611.1641" style="stroke:#181818;stroke-width:1.0;"/><line style="stroke:#181818;stroke-width:1.0;" x1="58.5" x2="267.5" y1="611.1641" y2="611.1641"/><text fill="#000000" font-family="sans-serif" font-size="13" lengthAdjust="spacing" textLength="147" x="70.5" y="606.0981">Create a new category</text><polygon fill="#181818" points="251.5,636.2969,261.5,640.2969,251.5,644.2969,255.5,640.2969" style="stroke:#181818;stroke-width:1.0;"/><line style="stroke:#181818;stroke-width:1.0;" x1="53.5" x2="257.5" y1="640.2969" y2="640.2969"/><text fill="#000000" font-family="sans-serif" font-size="13" lengthAdjust="spacing" textLength="152" x="60.5" y="635.231">Submit category details</text><polygon fill="#181818" points="427.5,665.4297,437.5,669.4297,427.5,673.4297,431.5,669.4297" style="stroke:#181818;stroke-width:1.0;"/><line style="stroke:#181818;stroke-width:1.0;" x1="273.5" x2="433.5" y1="669.4297" y2="669.4297"/><text fill="#000000" font-family="sans-serif" font-size="13" lengthAdjust="spacing" textLength="93" x="280.5" y="664.3638">Save category</text><polygon fill="#181818" points="284.5,694.5625,274.5,698.5625,284.5,702.5625,280.5,698.5625" style="stroke:#181818;stroke-width:1.0;"/><line style="stroke:#181818;stroke-width:1.0;stroke-dasharray:2.0,2.0;" x1="278.5" x2="443.5" y1="698.5625" y2="698.5625"/><text fill="#000000" font-family="sans-serif" font-size="13" lengthAdjust="spacing" textLength="102" x="290.5" y="693.4966">Category saved</text><polygon fill="#181818" points="59.5,723.6953,49.5,727.6953,59.5,731.6953,55.5,727.6953" style="stroke:#181818;stroke-width:1.0;"/><line style="stroke:#181818;stroke-width:1.0;stroke-dasharray:2.0,2.0;" x1="53.5" x2="267.5" y1="727.6953" y2="727.6953"/><text fill="#000000" font-family="sans-serif" font-size="13" lengthAdjust="spacing" textLength="186" x="65.5" y="722.6294">Category creation successful</text><line style="stroke:#000000;stroke-width:1.0;stroke-dasharray:2.0,2.0;" x1="20" x2="491.5" y1="736.6953" y2="736.6953"/><text fill="#000000" font-family="sans-serif" font-size="11" font-weight="bold" lengthAdjust="spacing" textLength="110" x="25" y="746.9058">[Option is "Exit"]</text><polygon fill="#181818" points="64.5,767.6328,54.5,771.6328,64.5,775.6328,60.5,771.6328" style="stroke:#181818;stroke-width:1.0;"/><line style="stroke:#181818;stroke-width:1.0;" x1="58.5" x2="267.5" y1="771.6328" y2="771.6328"/><text fill="#000000" font-family="sans-serif" font-size="13" lengthAdjust="spacing" textLength="44" x="70.5" y="766.5669">Logout</text><polygon fill="#181818" points="251.5,796.7656,261.5,800.7656,251.5,804.7656,255.5,800.7656" style="stroke:#181818;stroke-width:1.0;"/><line style="stroke:#181818;stroke-width:1.0;" x1="53.5" x2="257.5" y1="800.7656" y2="800.7656"/><text fill="#000000" font-family="sans-serif" font-size="13" lengthAdjust="spacing" textLength="95" x="60.5" y="795.6997">Confirm logout</text><polygon fill="#181818" points="427.5,825.8984,437.5,829.8984,427.5,833.8984,431.5,829.8984" style="stroke:#181818;stroke-width:1.0;"/><line style="stroke:#181818;stroke-width:1.0;" x1="273.5" x2="433.5" y1="829.8984" y2="829.8984"/><text fill="#000000" font-family="sans-serif" font-size="13" lengthAdjust="spacing" textLength="136" x="280.5" y="824.8325">Cleanup user session</text><polygon fill="#181818" points="284.5,855.0313,274.5,859.0313,284.5,863.0313,280.5,859.0313" style="stroke:#181818;stroke-width:1.0;"/><line style="stroke:#181818;stroke-width:1.0;stroke-dasharray:2.0,2.0;" x1="278.5" x2="443.5" y1="859.0313" y2="859.0313"/><text fill="#000000" font-family="sans-serif" font-size="13" lengthAdjust="spacing" textLength="123" x="290.5" y="853.9653">Session cleaned up</text><polygon fill="#181818" points="59.5,884.1641,49.5,888.1641,59.5,892.1641,55.5,888.1641" style="stroke:#181818;stroke-width:1.0;"/><line style="stroke:#181818;stroke-width:1.0;stroke-dasharray:2.0,2.0;" x1="53.5" x2="267.5" y1="888.1641" y2="888.1641"/><text fill="#000000" font-family="sans-serif" font-size="13" lengthAdjust="spacing" textLength="115" x="65.5" y="883.0981">Logout successful</text><path d="M40,903.1641 L128,903.1641 L128,910.2969 L118,920.2969 L40,920.2969 L40,903.1641 " fill="#EEEEEE" style="stroke:#000000;stroke-width:1.5;"/><rect fill="none" height="17.1328" style="stroke:#000000;stroke-width:1.5;" width="93" x="40" y="903.1641"/><text fill="#000000" font-family="sans-serif" font-size="13" font-weight="bold" lengthAdjust="spacing" textLength="43" x="55" y="916.231">break</text><line style="stroke:#000000;stroke-width:1.0;stroke-dasharray:2.0,2.0;" x1="20" x2="491.5" y1="928.2969" y2="928.2969"/><text fill="#000000" font-family="sans-serif" font-size="11" font-weight="bold" lengthAdjust="spacing" textLength="168" x="25" y="938.5073">[User not authenticated]</text><polygon fill="#181818" points="59.5,959.2344,49.5,963.2344,59.5,967.2344,55.5,963.2344" style="stroke:#181818;stroke-width:1.0;"/><line style="stroke:#181818;stroke-width:1.0;stroke-dasharray:2.0,2.0;" x1="53.5" x2="267.5" y1="963.2344" y2="963.2344"/><text fill="#000000" font-family="sans-serif" font-size="13" lengthAdjust="spacing" textLength="193" x="65.5" y="958.1685">Display "Authentication failed"</text><!--SRC=[lLNBRjim4BppAnQwv9GVyA50RFLMj46C5BdIr3eXIfC47qdpzzcbPPMEBC6DWn3m0zpPsUNCYf8gkG3t4OFmCYIjj9SsGVFJ9Npm0ME46-yRaELNT3B9ZOm8JTl_Aw5sAGHpmFKtXYtWXtlKLaYLzBDCM5Bfm-5skO2Rd9xGKZ6EbTe3afZQ9LmVU2gaTXRkC6QJH8SrNaYJ2Wl8YhSJGAiloj45h9_S2-oajh13cqkSrr7ZQpIe4aWBpdF90JLKBFqUTdl-adeRd6AzOg70RiH0RVugMw0ZDAk0JCT2DmDcr7EFac3n1InXZw2dcneVAczsEfLqw319RU9f6lRfH2lisLe-uqm3v4EzNtl89uH8wTqHvDZ4KTL1WPAkM0PMBcR58c-pcI8RIL75wlEXeJ6k_FYjIM4k5fif3Uum1OsaGwOQLx784VzRZ_kfv7CLQNNqHhvET_49QlHpjwAlHnTUpvrGrUClcD83nMMJEj_8Z3k74rymiGF55qpjzxywpPX3zx3BwIDkh9pTwh03CyCmOyBAeBJPbncb6p76-YOyrulrFWyKaz65cls7_DYBy8acyDgGjt_-sM8xKQmf6j8JEVKk6Zt4pRjNt9Pc7hkzfQTQUzSI5Nu3]--></g></svg>